<?xml version="1.0" encoding="UTF-8" standalone="no"?>
<!-- Created with Inkscape (http://www.inkscape.org/) -->

<svg
   xmlns:dc="http://purl.org/dc/elements/1.1/"
   xmlns:cc="http://creativecommons.org/ns#"
   xmlns:rdf="http://www.w3.org/1999/02/22-rdf-syntax-ns#"
   xmlns:svg="http://www.w3.org/2000/svg"
   xmlns="http://www.w3.org/2000/svg"
   xmlns:sodipodi="http://sodipodi.sourceforge.net/DTD/sodipodi-0.dtd"
   xmlns:inkscape="http://www.inkscape.org/namespaces/inkscape"
   version="1.1"
   width="558.86871"
   height="106.64551"
   id="svg2"
   sodipodi:docname="ubuntustudio_v3_wordmark_black.svg"
   inkscape:version="0.92.4 (5da689c313, 2019-01-14)">
  <sodipodi:namedview
     pagecolor="#ffffff"
     bordercolor="#666666"
     borderopacity="1"
     objecttolerance="10"
     gridtolerance="10"
     guidetolerance="10"
     inkscape:pageopacity="0"
     inkscape:pageshadow="2"
     inkscape:window-width="1920"
     inkscape:window-height="1019"
     id="namedview24"
     showgrid="false"
     inkscape:snap-text-baseline="false"
     fit-margin-top="15"
     fit-margin-left="15"
     fit-margin-right="10"
     fit-margin-bottom="15"
     inkscape:zoom="2.04"
     inkscape:cx="343.2049"
     inkscape:cy="5.8928508"
     inkscape:window-x="0"
     inkscape:window-y="29"
     inkscape:window-maximized="1"
     inkscape:current-layer="svg2" />
  <title
     id="title14594">Ubuntu Studio v3</title>
  <defs
     id="defs4" />
  <metadata
     id="metadata7">
    <rdf:RDF>
      <cc:Work
         rdf:about="">
        <dc:format>image/svg+xml</dc:format>
        <dc:type
           rdf:resource="http://purl.org/dc/dcmitype/StillImage" />
        <dc:title>Ubuntu Studio v3</dc:title>
        <dc:creator>
          <cc:Agent>
            <dc:title>Cory Kontros</dc:title>
          </cc:Agent>
        </dc:creator>
        <dc:description>New Ubuntu Studio logo based on the Ubuntu logo 1st used in Ubuntu 10.04.</dc:description>
        <dc:date>August 8th 2010</dc:date>
      </cc:Work>
    </rdf:RDF>
  </metadata>
  <path
     inkscape:connector-curvature="0"
     style="display:inline;overflow:visible;visibility:visible;fill:#ffffff;fill-opacity:1;fill-rule:nonzero;stroke:none;stroke-width:10;marker:none;enable-background:accumulate"
     id="path6713"
     d="m 579.9564,24.95228 c 0.24159,-0.42042 0.30112,-0.93674 0.13888,-1.42213 -0.0853,-0.26217 -0.23593,-0.50906 -0.43108,-0.70373 -2.24591,-2.29836 -4.81678,-3.8225 -7.91096,-4.69 -0.92807,-0.25968 -1.8944,0.27568 -2.15411,1.20375 -0.25969,0.92806 0.27567,1.89439 1.20374,2.15408 2.58407,0.72448 4.49579,1.85788 6.37139,3.77728 0.5597,0.59777 1.45394,0.72194 2.15733,0.30266 0.2638,-0.15723 0.47984,-0.36967 0.62481,-0.62191 z" />
  <path
     inkscape:connector-curvature="0"
     style="display:inline;overflow:visible;visibility:visible;fill:#ffffff;fill-opacity:1;fill-rule:nonzero;stroke:none;stroke-width:10;marker:none;enable-background:accumulate"
     id="path6717"
     d="m 579.7081,46.66245 c 0.23996,0.42137 0.29739,0.93792 0.13325,1.42268 -0.0863,0.26181 -0.23793,0.50809 -0.43387,0.70198 -2.25499,2.28944 -4.83189,3.80338 -7.92952,4.65858 -0.92907,0.25603 -1.89327,-0.28318 -2.14928,-1.21228 -0.25602,-0.92908 0.28318,-1.89328 1.21227,-2.1493 2.5869,-0.71422 4.50314,-1.83999 6.38632,-3.75197 0.56206,-0.59553 1.45677,-0.71616 2.15852,-0.29408 0.26317,0.15828 0.47835,0.37157 0.62231,0.62439 z" />
  <g
     id="g4572"
     transform="translate(-0.26736,3.27051)">
    <path
       d="m 545.1368,82.22537 h 0.62802 c 0.52974,0 1.01496,-0.027 1.01496,-0.63493 0,-0.51258 -0.44166,-0.5914 -0.84814,-0.5914 h -0.79484 z m -0.59927,-1.71204 h 1.49099 c 0.91859,0 1.35146,0.36151 1.35146,1.10398 0,0.69615 -0.44169,0.98767 -1.01592,1.04978 l 1.10352,1.70416 h -0.64422 l -1.05022,-1.66015 h -0.63634 v 1.66015 h -0.59927 z m 1.28937,4.74824 c 1.52621,0 2.70899,-1.21755 2.70899,-2.83317 0,-1.57997 -1.18278,-2.79843 -2.70899,-2.79843 -1.54563,0 -2.72842,1.21846 -2.72842,2.79843 0,1.61562 1.18279,2.83317 2.72842,2.83317 m 0,-6.11638 c 1.80012,0 3.30915,1.42053 3.30915,3.28321 0,1.89789 -1.50903,3.31885 -3.30915,3.31885 -1.81076,0 -3.32768,-1.42096 -3.32768,-3.31885 0,-1.86268 1.51692,-3.28321 3.32768,-3.28321"
       id="path3005"
       style="fill:#000000;fill-opacity:1;fill-rule:nonzero;stroke:none"
       inkscape:connector-curvature="0" />
    <path
       d="m 54.86968,85.65499 c -2.01159,0.51812 -4.68319,1.06858 -8.01477,1.65143 -3.26879,0.58286 -7.07184,0.87429 -11.40922,0.87429 -3.77169,0 -6.94614,-0.55047 -9.52341,-1.65144 -2.5773,-1.16571 -4.65172,-2.78473 -6.22323,-4.85712 -1.57154,-2.07237 -2.70301,-4.50091 -3.39448,-7.28568 -0.69149,-2.8495 -1.03722,-5.99046 -1.03721,-9.42284 V 36.59799 h 8.76907 v 26.42278 c -3e-5,6.1524 0.94295,10.55618 2.82876,13.2114 1.88579,2.65524 5.06027,3.98285 9.52341,3.98284 0.94288,10e-6 1.91721,-0.0325 2.92302,-0.0971 1.00575,-0.0647 1.94866,-0.12952 2.82876,-0.1943 0.88001,-0.12951 1.66578,-0.22664 2.35726,-0.29144 0.7543,-0.1295 1.28863,-0.25902 1.60296,-0.38855 V 36.59801 h 8.76908 v 49.057"
       id="path14505"
       style="font-style:normal;font-variant:normal;font-weight:normal;font-stretch:normal;font-size:258.12625122px;line-height:125%;font-family:UbuntuBeta;-inkscape-font-specification:UbuntuBeta;letter-spacing:0px;word-spacing:0px;fill:#000000;fill-opacity:1;stroke:none"
       inkscape:connector-curvature="0" />
    <path
       d="m 71.11431,38.83227 c 1.06863,-0.71231 2.67158,-1.45708 4.80888,-2.23428 2.2001,-0.77708 4.71453,-1.16565 7.5433,-1.16571 3.52017,6e-5 6.63178,0.64768 9.33482,1.94288 2.76584,1.29526 5.09169,3.10858 6.97756,5.43998 1.88578,2.33144 3.30014,5.11621 4.24311,8.35426 1.00572,3.23812 1.50861,6.80002 1.50866,10.68566 -5e-5,4.08003 -0.59724,7.77144 -1.79155,11.07426 -1.13155,3.23812 -2.7659,5.99048 -4.90314,8.25715 -2.13731,2.26664 -4.7146,4.0152 -7.73188,5.24568 -3.01734,1.23049 -6.41182,1.84571 -10.18348,1.84571 -4.08595,0 -7.70044,-0.29141 -10.84347,-0.87427 -3.14306,-0.58285 -5.72036,-1.16574 -7.73188,-1.7486 V 13.28378 l 8.76907,-1.55429 v 27.10278 m 0,40.41133 c 0.88005,0.25905 2.10584,0.51809 3.67737,0.77715 1.63437,0.19427 3.64591,0.29143 6.03467,0.29142 4.7145,1e-5 8.48614,-1.58666 11.31492,-4.75999 2.8287,-3.23806 4.24306,-7.80377 4.24312,-13.69712 -6e-5,-2.59043 -0.2515,-5.019 -0.75433,-7.28567 -0.50294,-2.26665 -1.32011,-4.20949 -2.45158,-5.82857 -1.13152,-1.68377 -2.60876,-2.97902 -4.43168,-3.8857 -1.76014,-0.97138 -3.8974,-1.4571 -6.4118,-1.45717 -2.38877,7e-5 -4.58888,0.42102 -6.6004,1.26288 -2.01157,0.84194 -3.55166,1.71624 -4.62029,2.62287 v 31.9599"
       id="path14507"
       style="font-style:normal;font-variant:normal;font-weight:normal;font-stretch:normal;font-size:258.12625122px;line-height:125%;font-family:UbuntuBeta;-inkscape-font-specification:UbuntuBeta;letter-spacing:0px;word-spacing:0px;fill:#000000;fill-opacity:1;stroke:none"
       inkscape:connector-curvature="0" />
    <path
       d="m 149.36724,85.65499 c -2.01157,0.51812 -4.68318,1.06858 -8.01473,1.65143 -3.26882,0.58286 -7.07189,0.87429 -11.40926,0.87429 -3.77167,0 -6.94614,-0.55047 -9.5234,-1.65144 -2.57732,-1.16571 -4.65172,-2.78473 -6.22325,-4.85712 -1.57151,-2.07237 -2.703,-4.50091 -3.39446,-7.28568 -0.6915,-2.8495 -1.03723,-5.99046 -1.03721,-9.42284 V 36.59799 h 8.76907 v 26.42278 c -1e-5,6.1524 0.94291,10.55618 2.82875,13.2114 1.88583,2.65524 5.06028,3.98285 9.52342,3.98284 0.94288,10e-6 1.91721,-0.0325 2.92303,-0.0971 1.00574,-0.0647 1.94864,-0.12952 2.82874,-0.1943 0.88,-0.12951 1.66577,-0.22664 2.35726,-0.29144 0.75431,-0.1295 1.28863,-0.25902 1.60296,-0.38855 V 36.59801 h 8.76908 v 49.057"
       id="path14509"
       style="font-style:normal;font-variant:normal;font-weight:normal;font-stretch:normal;font-size:258.12625122px;line-height:125%;font-family:UbuntuBeta;-inkscape-font-specification:UbuntuBeta;letter-spacing:0px;word-spacing:0px;fill:#000000;fill-opacity:1;stroke:none"
       inkscape:connector-curvature="0" />
    <path
       d="m 156.84282,38.05514 c 2.01153,-0.51806 4.68312,-1.06852 8.01473,-1.65143 3.33161,-0.5828 7.16612,-0.87424 11.50356,-0.87429 3.89735,5e-5 7.13467,0.58292 9.71199,1.74859 2.57725,1.10099 4.62024,2.68762 6.12894,4.75997 1.57148,2.00767 2.67152,4.43622 3.30018,7.2857 0.62857,2.84956 0.94287,5.9905 0.94293,9.42282 v 28.36567 h -8.76911 V 60.68936 c -4e-5,-3.10854 -0.22003,-5.76378 -0.66004,-7.96569 -0.37719,-2.20186 -1.03723,-3.98281 -1.98012,-5.34284 -0.94293,-1.35997 -2.20012,-2.33139 -3.77164,-2.91428 -1.57157,-0.64758 -3.52024,-0.97138 -5.84607,-0.97142 -0.94293,4e-5 -1.91728,0.0325 -2.92302,0.0971 -1.00581,0.0647 -1.98014,0.16196 -2.92302,0.29144 -0.88005,0.0646 -1.69728,0.16194 -2.45157,0.29144 -0.69147,0.12955 -1.19439,0.22667 -1.50867,0.29141 v 42.64562 h -8.76907 V 38.05511"
       id="path14511"
       style="font-style:normal;font-variant:normal;font-weight:normal;font-stretch:normal;font-size:258.12625122px;line-height:125%;font-family:UbuntuBeta;-inkscape-font-specification:UbuntuBeta;letter-spacing:0px;word-spacing:0px;fill:#000000;fill-opacity:1;stroke:none"
       inkscape:connector-curvature="0" />
    <path
       d="m 211.55828,36.59799 h 18.57538 v 7.57715 h -18.57538 v 23.31419 c -2e-5,2.52573 0.18858,4.6305 0.56575,6.31429 0.37715,1.61907 0.94291,2.9143 1.69724,3.88568 0.75432,0.90669 1.6972,1.55431 2.82874,1.94285 1.13146,0.38861 2.45153,0.58287 3.96025,0.58286 2.64011,10e-6 4.74593,-0.29142 6.31751,-0.87427 1.63435,-0.64763 2.76581,-1.10092 3.39446,-1.36001 l 1.69725,7.48 c -0.88008,0.45334 -2.42016,1.00381 -4.62027,1.65144 -2.20015,0.71237 -4.71458,1.06854 -7.54327,1.06854 -3.33169,0 -6.09754,-0.42096 -8.29766,-1.26285 -2.13725,-0.90667 -3.86593,-2.23428 -5.18599,-3.98284 -1.32009,-1.74854 -2.26301,-3.88571 -2.82878,-6.41142 -0.50289,-2.59044 -0.7543,-5.56949 -0.75429,-8.93709 V 22.51232 l 8.76906,-1.55427 v 15.63994"
       id="path14513"
       style="font-style:normal;font-variant:normal;font-weight:normal;font-stretch:normal;font-size:258.12625122px;line-height:125%;font-family:UbuntuBeta;-inkscape-font-specification:UbuntuBeta;letter-spacing:0px;word-spacing:0px;fill:#000000;fill-opacity:1;stroke:none"
       inkscape:connector-curvature="0" />
    <path
       d="m 274.69734,85.65499 c -2.01159,0.51812 -4.68318,1.06858 -8.01476,1.65143 -3.2688,0.58286 -7.07187,0.87429 -11.40922,0.87429 -3.77169,0 -6.94615,-0.55047 -9.52342,-1.65144 -2.57733,-1.16571 -4.65172,-2.78473 -6.22325,-4.85712 -1.57151,-2.07237 -2.70301,-4.50091 -3.39445,-7.28568 -0.6915,-2.8495 -1.03723,-5.99046 -1.03723,-9.42284 V 36.59799 h 8.76907 v 26.42278 c -2e-5,6.1524 0.9429,10.55618 2.82877,13.2114 1.88579,2.65524 5.06026,3.98285 9.52341,3.98284 0.94288,10e-6 1.91722,-0.0325 2.92303,-0.0971 1.00574,-0.0647 1.94866,-0.12952 2.82872,-0.1943 0.88003,-0.12951 1.66579,-0.22664 2.35731,-0.29144 0.75428,-0.1295 1.28859,-0.25902 1.60293,-0.38855 V 36.59801 h 8.76909 v 49.057"
       id="path14515"
       style="font-style:normal;font-variant:normal;font-weight:normal;font-stretch:normal;font-size:258.12625122px;line-height:125%;font-family:UbuntuBeta;-inkscape-font-specification:UbuntuBeta;letter-spacing:0px;word-spacing:0px;fill:#000000;fill-opacity:1;stroke:none"
       inkscape:connector-curvature="0" />
    <path
       d="m 325.68164,80.6036 c 3.58304,0 6.2232,-0.48571 7.92045,-1.45715 1.76008,-0.97142 2.64014,-2.52569 2.64017,-4.66284 -3e-5,-2.20188 -0.84864,-3.95044 -2.54588,-5.24571 -1.69724,-1.29521 -4.49457,-2.75234 -8.3919,-4.3714 -1.88586,-0.77713 -3.70881,-1.55426 -5.46889,-2.33142 -1.69728,-0.84189 -3.1745,-1.81331 -4.43168,-2.9143 -1.25726,-1.1009 -2.26302,-2.42852 -3.01734,-3.98283 -0.75435,-1.55424 -1.1315,-3.46471 -1.13149,-5.73144 -1e-5,-4.46851 1.60292,-7.99801 4.80886,-10.5885 3.20588,-2.65519 7.5747,-3.98281 13.10646,-3.98285 1.38293,4e-5 2.76588,0.0972 4.14882,0.29143 1.38291,0.12955 2.67157,0.32386 3.86596,0.58284 1.19431,0.19435 2.23151,0.42101 3.11159,0.67999 0.94289,0.25911 1.66579,0.48577 2.16872,0.68002 l -1.60296,7.77139 c -0.94295,-0.51804 -2.42018,-1.03614 -4.43169,-1.55429 -2.01157,-0.5828 -4.4317,-0.87425 -7.26044,-0.87429 -2.45159,4e-5 -4.58886,0.51814 -6.4118,1.5543 -1.82297,0.97145 -2.73445,2.52575 -2.73444,4.66283 -10e-6,1.16577 0.18857,2.16956 0.56576,3.01142 0.44002,0.77718 1.06861,1.48957 1.88581,2.13715 0.88006,0.64763 1.94867,1.29528 3.20591,1.94284 1.25721,0.58291 2.76584,1.19813 4.52598,1.84573 2.26297,0.9067 4.30593,1.81336 6.12892,2.72 1.82296,0.84192 3.39446,1.84572 4.71458,3.01139 1.32004,1.16574 2.32581,2.59051 3.01731,4.27429 0.69143,1.61904 1.03717,3.62668 1.03721,6.02285 -4e-5,4.66285 -1.69729,8.19234 -5.09172,10.58853 -3.39454,2.39619 -8.17195,3.59428 -14.33228,3.59428 -4.33742,0 -7.7319,-0.38858 -10.18346,-1.16569 -2.45157,-0.71243 -4.1174,-1.26289 -4.99743,-1.65144 l 1.60295,-7.77143 c 1.00577,0.38862 2.60872,0.97147 4.80884,1.74858 2.20014,0.77714 5.12316,1.16572 8.7691,1.16572"
       id="path14517"
       style="font-style:normal;font-variant:normal;font-weight:normal;font-stretch:normal;font-size:258.12625122px;line-height:125%;font-family:UbuntuBeta;-inkscape-font-specification:UbuntuBeta;letter-spacing:0px;word-spacing:0px;fill:#000000;fill-opacity:1;stroke:none"
       inkscape:connector-curvature="0" />
    <path
       d="m 358.83314,36.59799 h 18.5754 v 7.57715 h -18.5754 v 23.31419 c -2e-5,2.52573 0.18858,4.6305 0.56575,6.31429 0.37717,1.61907 0.94291,2.9143 1.69727,3.88568 0.75427,0.90669 1.69717,1.55431 2.82873,1.94285 1.13147,0.38861 2.45155,0.58287 3.96022,0.58286 2.64013,10e-6 4.74598,-0.29142 6.31753,-0.87427 1.63434,-0.64763 2.76581,-1.10092 3.39447,-1.36001 l 1.69724,7.48 c -0.88007,0.45334 -2.42016,1.00381 -4.62029,1.65144 -2.20013,0.71237 -4.71456,1.06854 -7.54328,1.06854 -3.33164,0 -6.09752,-0.42096 -8.29764,-1.26285 -2.13727,-0.90667 -3.86594,-2.23428 -5.18601,-3.98284 -1.3201,-1.74854 -2.26298,-3.88571 -2.82873,-6.41142 -0.50291,-2.59044 -0.75434,-5.56949 -0.75433,-8.93709 V 22.51232 l 8.76907,-1.55427 v 15.63994"
       id="path14519"
       style="font-style:normal;font-variant:normal;font-weight:normal;font-stretch:normal;font-size:258.12625122px;line-height:125%;font-family:UbuntuBeta;-inkscape-font-specification:UbuntuBeta;letter-spacing:0px;word-spacing:0px;fill:#000000;fill-opacity:1;stroke:none"
       inkscape:connector-curvature="0" />
    <path
       d="m 421.97221,85.65499 c -2.0116,0.51812 -4.68319,1.06858 -8.01475,1.65143 -3.26881,0.58286 -7.07188,0.87429 -11.40925,0.87429 -3.77167,0 -6.94613,-0.55047 -9.52341,-1.65144 -2.57733,-1.16571 -4.65171,-2.78473 -6.22323,-4.85712 -1.57154,-2.07237 -2.70302,-4.50091 -3.39448,-7.28568 -0.69148,-2.8495 -1.03721,-5.99046 -1.03719,-9.42284 V 36.59799 h 8.76905 v 26.42278 c -2e-5,6.1524 0.94289,10.55618 2.82877,13.2114 1.8858,2.65524 5.06025,3.98285 9.52339,3.98284 0.9429,10e-6 1.91723,-0.0325 2.92304,-0.0971 1.00575,-0.0647 1.94863,-0.12952 2.82872,-0.1943 0.88005,-0.12951 1.66578,-0.22664 2.35728,-0.29144 0.75431,-0.1295 1.28861,-0.25902 1.60297,-0.38855 V 36.59801 h 8.76909 v 49.057"
       id="path14521"
       style="font-style:normal;font-variant:normal;font-weight:normal;font-stretch:normal;font-size:258.12625122px;line-height:125%;font-family:UbuntuBeta;-inkscape-font-specification:UbuntuBeta;letter-spacing:0px;word-spacing:0px;fill:#000000;fill-opacity:1;stroke:none"
       inkscape:connector-curvature="0" />
    <path
       d="m 461.12963,47.2837 c -1.06867,-0.90663 -2.60875,-1.78093 -4.62027,-2.62287 -2.01159,-0.84186 -4.21171,-1.26281 -6.60039,-1.26288 -2.51447,7e-5 -4.68316,0.48579 -6.50612,1.45717 -1.76011,0.90668 -3.2059,2.20193 -4.33738,3.8857 -1.1315,1.61908 -1.9487,3.56192 -2.45158,5.82857 -0.5029,2.26667 -0.75433,4.69524 -0.75433,7.28567 0,5.89335 1.41437,10.45906 4.24311,13.69712 2.82872,3.17333 6.60037,4.76 11.31496,4.75999 2.38867,1e-5 4.36878,-0.0971 5.94036,-0.29142 1.63433,-0.25906 2.89154,-0.5181 3.77164,-0.77715 V 47.2837 m 0,-33.99992 8.76908,-1.55429 v 73.9255 c -2.01159,0.58286 -4.58888,1.16575 -7.73187,1.7486 -3.14309,0.58286 -6.75759,0.87427 -10.8435,0.87427 -3.77168,0 -7.16615,-0.61522 -10.18347,-1.84571 -3.01733,-1.23048 -5.59462,-2.97904 -7.73188,-5.24568 -2.13726,-2.26667 -3.80309,-5.01903 -4.99742,-8.25715 -1.13152,-3.30282 -1.69724,-6.99423 -1.69724,-11.07426 0,-3.88564 0.47143,-7.44754 1.41437,-10.68566 1.00577,-3.23805 2.45154,-6.02282 4.33738,-8.35426 1.88582,-2.3314 4.18024,-4.14472 6.88327,-5.43998 2.76583,-1.2952 5.90891,-1.94282 9.42913,-1.94288 2.8287,6e-5 5.3117,0.38863 7.449,1.16571 2.20011,0.7772 3.83448,1.52197 4.90315,2.23428 V 13.28378"
       id="path14523"
       style="font-style:normal;font-variant:normal;font-weight:normal;font-stretch:normal;font-size:258.12625122px;line-height:125%;font-family:UbuntuBeta;-inkscape-font-specification:UbuntuBeta;letter-spacing:0px;word-spacing:0px;fill:#000000;fill-opacity:1;stroke:none"
       inkscape:connector-curvature="0" />
    <path
       d="m 486.20229,87.11217 h -8.7691 V 36.59799 h 8.7691 V 87.11217 M 481.77058,27.4666 c -1.57151,7e-5 -2.92303,-0.51805 -4.05451,-1.55429 -1.06863,-1.10089 -1.60297,-2.55801 -1.60296,-4.37143 -1e-5,-1.81325 0.53433,-3.23799 1.60296,-4.27424 1.13148,-1.1009 2.483,-1.65136 4.05451,-1.65145 1.57151,9e-5 2.89161,0.55055 3.96023,1.65145 1.13149,1.03625 1.69722,2.46099 1.69726,4.27424 -4e-5,1.81342 -0.56577,3.27054 -1.69726,4.37143 -1.06862,1.03624 -2.38872,1.55436 -3.96023,1.55429"
       id="path14525"
       style="font-style:normal;font-variant:normal;font-weight:normal;font-stretch:normal;font-size:258.12625122px;line-height:125%;font-family:UbuntuBeta;-inkscape-font-specification:UbuntuBeta;letter-spacing:0px;word-spacing:0px;fill:#000000;fill-opacity:1;stroke:none"
       inkscape:connector-curvature="0" />
    <path
       d="m 537.02236,61.85506 c -5e-5,4.01525 -0.56581,7.64194 -1.69724,10.88 -1.13155,3.23808 -2.7345,6.02284 -4.80886,8.35424 -2.01158,2.33143 -4.43173,4.14475 -7.26043,5.43997 -2.82877,1.23048 -5.90894,1.84573 -9.24055,1.84573 -3.33165,0 -6.41181,-0.61525 -9.24054,-1.84573 -2.82873,-1.29522 -5.28032,-3.10854 -7.35469,-5.43997 -2.01157,-2.3314 -3.58309,-5.11616 -4.71457,-8.35424 -1.1315,-3.23806 -1.69728,-6.86475 -1.69727,-10.88 -1e-5,-3.95043 0.56577,-7.54471 1.69727,-10.78283 1.13148,-3.30279 2.703,-6.11992 4.71457,-8.4514 2.07437,-2.33138 4.52596,-4.11229 7.35469,-5.34282 2.82873,-1.2952 5.90889,-1.94281 9.24054,-1.94285 3.33161,4e-5 6.41178,0.64765 9.24055,1.94285 2.8287,1.23053 5.24885,3.01144 7.26043,5.34282 2.07436,2.33148 3.67731,5.14861 4.80886,8.4514 1.13143,3.23812 1.69719,6.8324 1.69724,10.78283 m -9.14626,0 c -4e-5,-5.69899 -1.25726,-10.19993 -3.77164,-13.5028 -2.45161,-3.36757 -5.81465,-5.05137 -10.08918,-5.05142 -4.27454,5e-5 -7.66903,1.68385 -10.18345,5.05142 -2.45157,3.30287 -3.67737,7.80381 -3.67736,13.5028 -1e-5,5.69908 1.22579,10.23237 3.67736,13.59996 2.51442,3.30288 5.90891,4.9543 10.18345,4.95429 4.27453,10e-6 7.63757,-1.65141 10.08918,-4.95429 2.51438,-3.36759 3.7716,-7.90088 3.77164,-13.59996"
       id="path14527"
       style="font-style:normal;font-variant:normal;font-weight:normal;font-stretch:normal;font-size:258.12625122px;line-height:125%;font-family:UbuntuBeta;-inkscape-font-specification:UbuntuBeta;letter-spacing:0px;word-spacing:0px;fill:#000000;fill-opacity:1;stroke:none"
       inkscape:connector-curvature="0" />
  </g>
</svg>
